<svg version="1.1" id="Layer_1" xmlns="http://www.w3.org/2000/svg" xmlns:xlink="http://www.w3.org/1999/xlink" x="0px" y="0px"
	 width="100%" viewBox="0 0 512 301" enable-background="new 0 0 512 301" xml:space="preserve">
<path fill="#FFFFFF" opacity="1.000000" stroke="none" 
	d="
M334.000000,302.000000 
	C222.700745,302.000000 111.901482,302.000000 1.051112,302.000000 
	C1.051112,201.731613 1.051112,101.463188 1.051112,1.097382 
	C171.549225,1.097382 342.098541,1.097382 512.823914,1.097382 
	C512.823914,101.333084 512.823914,201.666519 512.823914,302.000000 
	C453.463257,302.000000 393.981628,302.000000 334.000000,302.000000 
M107.005150,221.453430 
	C106.863777,221.180252 106.722412,220.907089 106.581047,220.633911 
	C106.698532,221.105972 106.816017,221.578049 106.989830,222.692490 
	C107.333939,223.475464 107.678040,224.258453 107.764328,225.663132 
	C103.982056,231.847580 100.045067,237.945709 96.516289,244.271561 
	C95.519196,246.058990 95.716064,248.512436 95.477264,249.975006 
	C93.648735,252.130676 91.977425,254.101013 90.112251,256.299896 
	C95.032898,259.469543 99.261337,262.193329 102.452469,264.917542 
	C87.006256,264.917542 71.560036,264.917542 56.113823,264.917542 
	C71.179817,265.963684 86.240936,265.978241 101.301781,265.920013 
	C102.040894,265.917175 102.777550,265.278412 104.136612,264.893372 
	C104.901596,264.758026 105.666580,264.622681 106.722641,264.752686 
	C106.722641,264.752686 107.019653,265.011292 107.565437,265.647888 
	C123.884270,265.750031 140.203079,265.861725 156.522064,265.913544 
	C157.078598,265.915314 157.637009,265.316071 158.613922,264.998505 
	C158.613922,264.998505 159.033157,264.988342 159.963409,265.048157 
	C165.496613,265.048157 171.029816,265.048157 176.563004,265.048157 
	C176.812851,264.681122 177.062683,264.314056 177.312531,263.947021 
	C175.845123,262.523438 174.377701,261.099854 172.684006,259.000488 
	C172.139252,258.685028 171.617966,258.316071 171.045059,258.064850 
	C169.703278,257.476440 168.336746,256.944489 166.980225,256.389709 
	C167.807602,255.365540 168.679062,254.371841 169.425293,253.291626 
	C169.575089,253.074783 169.248703,252.529007 169.209900,251.182388 
	C168.883835,238.432510 168.557770,225.682617 168.795670,212.499222 
	C172.989410,211.342850 177.154327,210.065201 181.384109,209.060547 
	C186.782791,207.778244 192.233856,206.716446 197.662338,205.559601 
	C197.569122,205.102722 197.475906,204.645844 197.382690,204.188965 
	C196.295074,204.269989 195.184601,204.237274 194.123505,204.450348 
	C186.682907,205.944412 179.285095,207.677917 171.810547,208.970001 
	C162.475327,210.583755 153.000778,211.466217 143.734634,213.381592 
	C136.157761,214.947754 128.787415,217.528992 121.348022,219.736130 
	C118.512344,220.577423 115.739426,221.630264 112.296059,222.825272 
	C111.845284,222.818237 111.394508,222.811203 110.490181,222.288696 
	C109.346985,222.172668 108.203781,222.056641 107.005150,221.453430 
M98.743523,174.988831 
	C99.250618,174.959885 99.757713,174.930939 100.709969,175.524384 
	C101.518440,179.203232 102.326912,182.882065 103.210678,186.903534 
	C107.814156,185.895432 112.389160,184.893555 116.138916,184.072403 
	C115.399643,179.672852 114.755005,175.836456 114.740112,171.940689 
	C115.516594,171.613464 116.293083,171.286240 117.729485,171.214188 
	C121.174286,172.822723 123.049454,171.238708 124.934685,168.013412 
	C139.553329,165.035263 154.171997,162.057114 168.915466,159.824173 
	C169.319626,162.775314 171.027618,164.582077 173.941864,163.730530 
	C177.488815,162.694122 177.447922,159.872559 176.572418,156.558807 
	C176.055664,156.039566 175.538910,155.520309 174.632355,154.446625 
	C173.115707,152.557556 171.599060,150.668488 170.059082,148.019760 
	C164.652939,136.467194 159.454163,124.808205 153.634811,113.467667 
	C152.674469,111.596176 149.049667,110.322708 146.562027,110.152924 
	C139.930359,109.700302 133.247284,109.981415 126.584785,110.006439 
	C121.535286,110.025398 118.596863,112.164185 118.081345,117.067291 
	C116.870697,128.581772 115.926506,140.127060 115.108444,151.676437 
	C115.009842,153.068558 116.354118,154.562881 116.985443,156.847610 
	C116.510048,160.853745 116.034653,164.859863 114.866829,168.841919 
	C109.810585,169.657013 104.754349,170.472107 98.871414,171.122543 
	C97.917732,171.758316 96.964050,172.394089 96.005699,173.804596 
	C96.382774,175.607315 96.759850,177.410034 97.136917,179.212753 
	C97.418533,179.181427 97.700150,179.150101 97.981766,179.118790 
	C97.981766,177.745651 97.981766,176.372528 98.743523,174.988831 
M457.416595,37.399601 
	C456.105194,37.269005 454.793793,37.024437 453.482361,37.024113 
	C378.878326,37.005814 304.274323,37.001801 229.670319,37.049236 
	C228.109375,37.050228 226.548843,37.669178 224.398697,38.591442 
	C224.266678,39.736717 224.019684,40.881943 224.019211,42.027271 
	C223.999954,89.521652 224.072876,137.016296 223.902069,184.510056 
	C223.883545,189.661133 226.257690,190.060394 230.335663,190.056137 
	C304.160187,189.979080 377.984802,190.006714 451.809387,189.958817 
	C453.539795,189.957687 455.269806,189.343079 457.793213,188.827866 
	C458.190186,187.161514 458.931702,185.495605 458.933929,183.828720 
	C458.996338,136.944260 458.994598,90.059692 458.942352,43.175213 
	C458.940430,41.450962 458.324097,39.727394 457.416595,37.399601 
M131.200836,176.002869 
	C126.857536,175.713928 123.678055,177.422089 122.302490,181.645996 
	C120.820694,186.196136 123.626572,188.789871 126.996498,191.782639 
	C125.253990,197.639832 123.511490,203.497025 121.417793,210.534714 
	C141.844421,206.368195 160.753235,202.511292 179.810257,198.624146 
	C175.265106,193.796478 171.130081,189.404419 166.983643,184.264877 
	C165.981888,183.512939 164.980133,182.761002 163.380692,181.714310 
	C162.250565,180.828812 161.120453,179.943314 159.369888,178.571640 
	C157.119858,182.996216 155.080399,187.006729 152.234085,191.004944 
	C151.161560,191.001419 150.089050,190.997894 148.416611,190.692825 
	C144.697296,186.389267 141.125732,181.941940 137.166016,177.872284 
	C136.021072,176.695541 133.761475,176.603302 131.200836,176.002869 
M149.000595,95.632309 
	C148.995911,94.799057 149.005753,93.965424 148.984314,93.132607 
	C148.777374,85.096390 142.159348,80.142250 136.147415,80.020531 
	C129.106689,79.878006 123.449387,85.653259 123.135811,93.371254 
	C122.961929,97.650917 123.104607,101.943451 123.104607,106.385742 
	C131.984848,106.385742 140.377258,106.385742 149.000717,106.385742 
	C149.000717,102.894722 149.000717,99.738190 149.000595,95.632309 
M184.706390,264.955383 
	C182.787277,264.955383 180.868164,264.955383 178.949036,264.955383 
	C178.952377,265.217590 178.955704,265.479797 178.959045,265.742004 
	C195.300888,265.742004 211.642731,265.742004 227.984589,265.742004 
	C227.986191,265.479767 227.987793,265.217499 227.989410,264.955261 
	C213.877487,264.955261 199.765564,264.955261 184.706390,264.955383 
M101.895851,199.495193 
	C102.199776,202.390625 102.503700,205.286041 102.807625,208.181473 
	C103.263481,208.115372 103.719337,208.049271 104.175194,207.983170 
	C103.635597,205.217117 103.096001,202.451065 101.895851,199.495193 
M105.254517,213.403839 
	C105.040489,212.590012 104.826462,211.776199 104.612427,210.962387 
	C104.320755,211.030060 104.029083,211.097733 103.737404,211.165421 
	C104.196976,213.443527 104.656548,215.721634 105.116127,217.999756 
	C105.433693,217.942398 105.751266,217.885056 106.068832,217.827698 
	C105.890373,216.578522 105.711914,215.329361 105.254517,213.403839 
M100.039337,194.235886 
	C100.307701,194.709824 100.576057,195.183777 100.844421,195.657715 
	C101.148041,195.532089 101.451668,195.406448 101.755295,195.280807 
	C101.298325,194.140778 100.841354,193.000732 100.384377,191.860703 
	C100.301033,191.980423 100.217690,192.100159 100.090919,192.282288 
	C100.063683,192.680801 100.032013,193.144318 100.039337,194.235886 
M188.482971,154.200867 
	C188.039520,154.214951 187.596054,154.229034 187.152603,154.243118 
	C187.284302,154.652191 187.416016,155.061279 187.547729,155.470352 
	C187.934448,155.217758 188.321167,154.965164 188.482971,154.200867 
M183.975174,155.098465 
	C183.918625,155.252502 183.793976,155.422958 183.825943,155.555664 
	C183.854187,155.672775 184.129929,155.854095 184.172012,155.825287 
	C184.753189,155.427643 185.328217,155.015884 185.853683,154.550003 
	C185.905243,154.504303 185.620056,154.078796 185.491165,153.829575 
	C185.124344,154.138718 184.757538,154.447845 183.975174,155.098465 
M194.430054,186.702972 
	C194.703522,186.989426 194.976990,187.275879 195.250443,187.562332 
	C195.368973,187.448944 195.596832,187.243210 195.590302,187.235489 
	C195.335068,186.933365 195.058502,186.649277 194.430054,186.702972 
M99.887123,187.175766 
	C99.773003,187.056274 99.675774,186.878693 99.538521,186.838791 
	C99.454094,186.814240 99.210480,186.995789 99.206139,187.092316 
	C99.176178,187.759552 99.190361,188.428772 99.190361,189.097351 
	C99.368660,189.100159 99.546959,189.102966 99.725250,189.105789 
	C99.810661,188.644958 99.896065,188.184143 99.887123,187.175766 
M98.109810,183.812851 
	C98.225510,183.931259 98.325226,184.110352 98.462578,184.146545 
	C98.552551,184.170227 98.796669,183.991608 98.801018,183.895844 
	C98.831352,183.228607 98.817039,182.559326 98.817039,181.890717 
	C98.636040,181.888947 98.455040,181.887192 98.274040,181.885437 
	C98.186592,182.345444 98.099144,182.805450 98.109810,183.812851 
M191.569885,168.296890 
	C191.296478,168.010483 191.023071,167.724075 190.749649,167.437653 
	C190.631119,167.551041 190.403290,167.756744 190.409836,167.764481 
	C190.665009,168.066559 190.941544,168.350586 191.569885,168.296890 
M190.297012,162.430115 
	C190.010559,162.703552 189.724121,162.976990 189.437668,163.250412 
	C189.551056,163.368958 189.756775,163.596802 189.764526,163.590240 
	C190.066635,163.335068 190.350693,163.058517 190.297012,162.430115 
M195.605789,192.409653 
	C195.964188,192.317612 196.322571,192.225586 196.680969,192.133545 
	C196.358124,192.086411 196.035294,192.039276 195.605789,192.409653 
M196.815109,197.738602 
	C196.972977,197.623962 197.130829,197.509338 197.288696,197.394699 
	C197.069046,197.417908 196.849396,197.441116 196.815109,197.738602 
M192.175217,173.755051 
	C192.119843,173.588089 192.064468,173.421112 192.009079,173.254150 
	C191.955109,173.422134 191.901123,173.590118 192.175217,173.755051 
M193.184860,178.261337 
	C193.027039,178.375946 192.869217,178.490555 192.711380,178.605148 
	C192.930969,178.581955 193.150558,178.558762 193.184860,178.261337 
M178.814941,156.738953 
	C178.973022,156.624176 179.131088,156.509384 179.289169,156.394623 
	C179.069199,156.417847 178.849243,156.441086 178.814941,156.738953 
M180.482788,154.588699 
	C180.482788,154.588699 180.415985,154.477020 180.482788,154.588699 
z"/>
<path fill="#E4E4E4" opacity="1.000000" stroke="none" 
	d="
M168.790649,159.078979 
	C154.171997,162.057114 139.553329,165.035263 124.503082,167.691010 
	C124.068192,166.905334 124.064911,166.442093 124.443504,165.975464 
	C126.417587,164.752380 129.365646,163.532791 129.365753,162.312927 
	C129.366211,157.209976 128.482178,152.106949 127.922272,147.003937 
	C126.864288,148.729019 126.670715,150.557175 125.959328,152.154755 
	C125.185287,153.893066 123.930367,155.417252 122.509216,157.028290 
	C120.432106,156.684464 118.730873,156.347153 117.029640,156.009827 
	C116.354118,154.562881 115.009842,153.068558 115.108444,151.676437 
	C115.926506,140.127060 116.870697,128.581772 118.081345,117.067291 
	C118.596863,112.164185 121.535286,110.025398 126.584785,110.006439 
	C133.247284,109.981415 139.930359,109.700302 146.562027,110.152924 
	C149.049667,110.322708 152.674469,111.596176 153.634811,113.467667 
	C159.454163,124.808205 164.652939,136.467194 169.798950,148.606201 
	C168.630280,150.159897 167.721725,151.127136 166.482849,152.031189 
	C164.973221,150.660187 163.701111,149.423447 162.633759,148.029861 
	C160.363815,145.066101 158.200287,142.020828 155.940735,138.866684 
	C155.802231,138.673264 155.716156,138.622101 155.630081,138.570938 
	C155.756439,138.711548 155.882797,138.852173 156.001526,139.423401 
	C157.278442,146.153259 158.563019,152.452545 159.878464,158.903259 
	C163.490448,158.113342 166.185913,157.523849 168.904602,157.292542 
	C168.882095,158.126816 168.836365,158.602890 168.790649,159.078979 
z"/>
<path fill="#FEFEFE" opacity="1.000000" stroke="none" 
	d="
M159.033142,264.988342 
	C159.033157,264.988342 158.613922,264.998505 157.913437,264.984070 
	C140.481857,264.983521 123.750755,264.997406 107.019653,265.011292 
	C107.019653,265.011292 106.722641,264.752686 106.612717,264.249664 
	C108.638695,257.587128 101.656586,256.713623 99.688538,253.093826 
	C101.690826,252.096329 103.596939,251.698349 104.657257,250.531677 
	C113.533630,240.765106 122.254631,230.857330 131.322067,220.801178 
	C133.338318,219.759842 134.971176,218.574463 136.786926,218.120285 
	C142.834457,216.607651 148.947632,215.357407 155.055328,214.427353 
	C155.335648,217.448349 155.531830,220.056946 155.868179,222.647339 
	C157.234634,233.171051 158.644119,243.689178 160.037262,254.552078 
	C160.037323,256.035339 160.037872,257.175873 159.705963,258.605042 
	C159.260071,260.925201 159.146606,262.956787 159.033142,264.988342 
z"/>
<path fill="#E4E4E4" opacity="1.000000" stroke="none" 
	d="
M153.040939,191.017242 
	C155.080399,187.006729 157.119858,182.996216 159.369888,178.571640 
	C161.120453,179.943314 162.250565,180.828812 163.814194,182.141113 
	C165.163483,183.382736 166.079269,184.197556 166.995071,185.012375 
	C171.130081,189.404419 175.265106,193.796478 179.810257,198.624146 
	C160.753235,202.511292 141.844421,206.368195 121.417793,210.534714 
	C123.511490,203.497025 125.253990,197.639832 127.276489,191.160583 
	C129.041946,185.696976 130.527420,180.855423 132.012894,176.013870 
	C133.761475,176.603302 136.021072,176.695541 137.166016,177.872284 
	C141.125732,181.941940 144.697296,186.389267 148.857773,191.146378 
	C150.278290,192.255356 151.257660,192.910782 152.237030,193.566208 
	C152.505005,192.716553 152.772964,191.866898 153.040939,191.017242 
z"/>
<path fill="#F2F2F2" opacity="1.000000" stroke="none" 
	d="
M457.000000,189.014648 
	C455.269806,189.343079 453.539795,189.957687 451.809387,189.958817 
	C377.984802,190.006714 304.160187,189.979080 230.335663,190.056137 
	C226.257690,190.060394 223.883545,189.661133 223.902069,184.510056 
	C224.072876,137.016296 223.999954,89.521652 224.019211,42.027271 
	C224.019684,40.881943 224.266678,39.736717 224.949982,38.298782 
	C225.672180,38.009342 225.843109,38.012562 226.010162,38.482658 
	C226.004807,86.567261 226.089767,134.185364 225.876846,181.802155 
	C225.853912,186.932800 227.235168,188.125671 232.253662,188.115067 
	C307.176239,187.956802 382.099274,188.016373 457.017792,188.272110 
	C457.013367,188.519653 457.000000,189.014648 457.000000,189.014648 
z"/>
<path fill="#343346" opacity="1.000000" stroke="none" 
	d="
M131.022461,220.992126 
	C122.254631,230.857330 113.533630,240.765106 104.657257,250.531677 
	C103.596939,251.698349 101.690826,252.096329 99.688538,253.093826 
	C101.656586,256.713623 108.638695,257.587128 106.467178,264.117004 
	C105.666580,264.622681 104.901596,264.758026 103.786026,264.932678 
	C103.435432,264.972015 103.489777,264.917114 103.489777,264.917114 
	C99.261337,262.193329 95.032898,259.469543 90.112251,256.299896 
	C91.977425,254.101013 93.648735,252.130676 95.477264,249.975006 
	C95.716064,248.512436 95.519196,246.058990 96.516289,244.271561 
	C100.045067,237.945709 103.982056,231.847580 108.221664,225.297424 
	C109.433907,224.222519 110.188820,223.513336 110.943733,222.804169 
	C111.394508,222.811203 111.845284,222.818237 113.049362,222.784729 
	C115.695801,222.614212 117.595291,222.543747 119.480713,222.341812 
	C123.331970,221.929352 127.175659,221.446182 131.022461,220.992126 
z"/>
<path fill="#343346" opacity="1.000000" stroke="none" 
	d="
M160.037750,254.209366 
	C158.644119,243.689178 157.234634,233.171051 155.868179,222.647339 
	C155.531830,220.056946 155.335648,217.448349 155.467712,214.400894 
	C159.984177,213.613358 164.107941,213.273041 168.231720,212.932739 
	C168.557770,225.682617 168.883835,238.432510 168.784943,251.647186 
	C165.585907,252.811096 162.811829,253.510223 160.037750,254.209366 
z"/>
<path fill="#343346" opacity="1.000000" stroke="none" 
	d="
M149.000656,96.106987 
	C149.000717,99.738190 149.000717,102.894722 149.000717,106.385742 
	C140.377258,106.385742 131.984848,106.385742 123.104607,106.385742 
	C123.104607,101.943451 122.961929,97.650917 123.135811,93.371254 
	C123.449387,85.653259 129.106689,79.878006 136.147415,80.020531 
	C142.159348,80.142250 148.777374,85.096390 148.984314,93.132607 
	C149.005753,93.965424 148.995911,94.799057 149.000656,96.106987 
M128.829605,92.641617 
	C125.776329,92.832817 125.528854,94.669182 126.236412,97.064957 
	C127.622185,101.757210 132.983002,104.774208 138.111694,103.748528 
	C143.065445,102.757828 145.943573,98.712921 145.519653,93.522408 
	C140.126663,93.041435 134.763763,92.563141 128.829605,92.641617 
z"/>
<path fill="#E4E4E4" opacity="1.000000" stroke="none" 
	d="
M226.014038,38.015781 
	C225.843109,38.012562 225.672180,38.009342 225.244690,38.002983 
	C226.548843,37.669178 228.109375,37.050228 229.670319,37.049236 
	C304.274323,37.001801 378.878326,37.005814 453.482361,37.024113 
	C454.793793,37.024437 456.105194,37.269005 457.708740,37.699345 
	C458.000916,37.999088 458.006836,37.993118 457.537476,37.995537 
	C380.050110,38.003899 303.032074,38.009838 226.014038,38.015781 
z"/>
<path fill="#4EAD8E" opacity="1.000000" stroke="none" 
	d="
M114.110367,172.000076 
	C114.755005,175.836456 115.399643,179.672852 116.138916,184.072403 
	C112.389160,184.893555 107.814156,185.895432 103.210678,186.903534 
	C102.326912,182.882065 101.518440,179.203232 100.433311,174.878937 
	C100.003807,173.251389 99.850960,172.269287 99.698112,171.287201 
	C104.754349,170.472107 109.810585,169.657013 115.181839,168.933472 
	C115.496857,169.025040 115.669495,169.391327 115.319023,169.459915 
	C114.682487,170.352356 114.396423,171.176224 114.110367,172.000076 
M104.023163,179.982269 
	C106.698479,179.512497 109.373802,179.042740 112.049118,178.572968 
	C111.826897,177.859283 111.604683,177.145584 111.382462,176.431885 
	C108.718048,177.462799 106.053635,178.493729 104.023163,179.982269 
z"/>
<path fill="#E4E4E4" opacity="1.000000" stroke="none" 
	d="
M168.513687,212.715973 
	C164.107941,213.273041 159.984177,213.613358 155.448029,213.980118 
	C148.947632,215.357407 142.834457,216.607651 136.786926,218.120285 
	C134.971176,218.574463 133.338318,219.759842 131.322067,220.801178 
	C127.175659,221.446182 123.331970,221.929352 119.480713,222.341812 
	C117.595291,222.543747 115.695801,222.614212 113.370285,222.665436 
	C115.739426,221.630264 118.512344,220.577423 121.348022,219.736130 
	C128.787415,217.528992 136.157761,214.947754 143.734634,213.381592 
	C153.000778,211.466217 162.475327,210.583755 171.810547,208.970001 
	C179.285095,207.677917 186.682907,205.944412 194.123505,204.450348 
	C195.184601,204.237274 196.295074,204.269989 197.382690,204.188965 
	C197.475906,204.645844 197.569122,205.102722 197.662338,205.559601 
	C192.233856,206.716446 186.782791,207.778244 181.384109,209.060547 
	C177.154327,210.065201 172.989410,211.342850 168.513687,212.715973 
z"/>
<path fill="#E4E4E4" opacity="1.000000" stroke="none" 
	d="
M457.396606,188.921265 
	C457.000000,189.014648 457.013367,188.519653 457.310669,187.972046 
	C457.739441,185.612198 457.984985,183.799988 457.985840,181.987671 
	C458.008240,133.989502 458.005371,85.991310 458.006836,37.993118 
	C458.006836,37.993118 458.000916,37.999088 457.997498,38.001297 
	C458.324097,39.727394 458.940430,41.450962 458.942352,43.175213 
	C458.994598,90.059692 458.996338,136.944260 458.933929,183.828720 
	C458.931702,185.495605 458.190186,187.161514 457.396606,188.921265 
z"/>
<path fill="#F9B4B5" opacity="1.000000" stroke="none" 
	d="
M115.669495,169.391327 
	C115.669495,169.391327 115.496857,169.025040 115.528053,168.945526 
	C116.034653,164.859863 116.510048,160.853745 117.007538,156.428711 
	C118.730873,156.347153 120.432106,156.684464 122.514969,157.407532 
	C123.284943,160.521805 123.673286,163.250320 124.061630,165.978836 
	C124.064911,166.442093 124.068192,166.905334 124.106461,167.715164 
	C123.049454,171.238708 121.174286,172.822723 117.215622,170.786713 
	C116.357674,170.036606 116.013588,169.713974 115.669495,169.391327 
z"/>
<path fill="#F2F2F2" opacity="1.000000" stroke="none" 
	d="
M131.606873,176.008362 
	C130.527420,180.855423 129.041946,185.696976 127.282188,190.769012 
	C123.626572,188.789871 120.820694,186.196136 122.302490,181.645996 
	C123.678055,177.422089 126.857536,175.713928 131.606873,176.008362 
z"/>
<path fill="#F9B4B5" opacity="1.000000" stroke="none" 
	d="
M166.813156,152.094360 
	C167.721725,151.127136 168.630280,150.159897 169.810638,148.986038 
	C171.599060,150.668488 173.115707,152.557556 174.922958,154.990631 
	C175.537292,156.000290 175.861023,156.465927 176.184753,156.931564 
	C177.447922,159.872559 177.488815,162.694122 173.941864,163.730530 
	C171.027618,164.582077 169.319626,162.775314 168.853058,159.451569 
	C168.836365,158.602890 168.882095,158.126816 168.822083,156.975800 
	C168.081970,154.898697 167.447556,153.496521 166.813156,152.094360 
z"/>
<path fill="#343346" opacity="1.000000" stroke="none" 
	d="
M159.498276,265.018250 
	C159.146606,262.956787 159.260071,260.925201 159.885651,258.996368 
	C164.568634,259.291473 168.739456,259.483856 172.910294,259.676270 
	C174.377701,261.099854 175.845123,262.523438 177.312531,263.947021 
	C177.062683,264.314056 176.812851,264.681122 176.563004,265.048157 
	C171.029816,265.048157 165.496613,265.048157 159.498276,265.018250 
z"/>
<path fill="#F9B4B5" opacity="1.000000" stroke="none" 
	d="
M172.797150,259.338379 
	C168.739456,259.483856 164.568634,259.291473 160.218109,258.707764 
	C160.037872,257.175873 160.037323,256.035339 160.037262,254.552078 
	C162.811829,253.510223 165.585907,252.811096 168.750946,252.123428 
	C169.248703,252.529007 169.575089,253.074783 169.425293,253.291626 
	C168.679062,254.371841 167.807602,255.365540 166.980225,256.389709 
	C168.336746,256.944489 169.703278,257.476440 171.045059,258.064850 
	C171.617966,258.316071 172.139252,258.685028 172.797150,259.338379 
z"/>
<path fill="#E4E4E4" opacity="1.000000" stroke="none" 
	d="
M185.180023,264.955322 
	C199.765564,264.955261 213.877487,264.955261 227.989410,264.955261 
	C227.987793,265.217499 227.986191,265.479767 227.984589,265.742004 
	C211.642731,265.742004 195.300888,265.742004 178.959045,265.742004 
	C178.955704,265.479797 178.952377,265.217590 178.949036,264.955383 
	C180.868164,264.955383 182.787277,264.955383 185.180023,264.955322 
z"/>
<path fill="#E4E4E4" opacity="1.000000" stroke="none" 
	d="
M107.292542,265.329590 
	C123.750755,264.997406 140.481857,264.983521 157.703751,264.983276 
	C157.637009,265.316071 157.078598,265.915314 156.522064,265.913544 
	C140.203079,265.861725 123.884270,265.750031 107.292542,265.329590 
z"/>
<path fill="#E4E4E4" opacity="1.000000" stroke="none" 
	d="
M103.475388,264.953888 
	C102.777550,265.278412 102.040894,265.917175 101.301781,265.920013 
	C86.240936,265.978241 71.179817,265.963684 56.113823,264.917542 
	C71.560036,264.917542 87.006256,264.917542 102.971123,264.917328 
	C103.489777,264.917114 103.435432,264.972015 103.475388,264.953888 
z"/>
<path fill="#E4E4E4" opacity="1.000000" stroke="none" 
	d="
M102.226128,199.590103 
	C103.096001,202.451065 103.635597,205.217117 104.175194,207.983170 
	C103.719337,208.049271 103.263481,208.115372 102.807625,208.181473 
	C102.503700,205.286041 102.199776,202.390625 102.226128,199.590103 
z"/>
<path fill="#E4E4E4" opacity="1.000000" stroke="none" 
	d="
M97.981766,174.999390 
	C97.981766,176.372528 97.981766,177.745651 97.981766,179.118790 
	C97.700150,179.150101 97.418533,179.181427 97.136917,179.212753 
	C96.759850,177.410034 96.382774,175.607315 96.329712,173.445526 
	C97.096405,173.724091 97.539085,174.361740 97.981766,174.999390 
z"/>
<path fill="#E4E4E4" opacity="1.000000" stroke="none" 
	d="
M105.393982,213.742004 
	C105.711914,215.329361 105.890373,216.578522 106.068832,217.827698 
	C105.751266,217.885056 105.433693,217.942398 105.116127,217.999756 
	C104.656548,215.721634 104.196976,213.443527 103.737404,211.165421 
	C104.029083,211.097733 104.320755,211.030060 104.612427,210.962387 
	C104.826462,211.776199 105.040489,212.590012 105.393982,213.742004 
z"/>
<path fill="#FEFEFE" opacity="1.000000" stroke="none" 
	d="
M98.362640,174.994110 
	C97.539085,174.361740 97.096405,173.724091 96.332047,173.058151 
	C96.964050,172.394089 97.917732,171.758316 99.284760,171.204865 
	C99.850960,172.269287 100.003807,173.251389 100.210732,174.567734 
	C99.757713,174.930939 99.250618,174.959885 98.362640,174.994110 
z"/>
<path fill="#E4E4E4" opacity="1.000000" stroke="none" 
	d="
M110.716957,222.546417 
	C110.188820,223.513336 109.433907,224.222519 108.350571,224.986572 
	C107.678040,224.258453 107.333939,223.475464 106.994415,222.345062 
	C106.999008,221.997650 107.060585,221.940598 107.060585,221.940598 
	C108.203781,222.056641 109.346985,222.172668 110.716957,222.546417 
z"/>
<path fill="#FEFEFE" opacity="1.000000" stroke="none" 
	d="
M152.637512,191.011093 
	C152.772964,191.866898 152.505005,192.716553 152.237030,193.566208 
	C151.257660,192.910782 150.278290,192.255356 149.157730,191.297150 
	C150.089050,190.997894 151.161560,191.001419 152.637512,191.011093 
z"/>
<path fill="#E4E4E4" opacity="1.000000" stroke="none" 
	d="
M100.019836,193.921860 
	C100.032013,193.144318 100.063683,192.680801 100.090919,192.282288 
	C100.217690,192.100159 100.301033,191.980423 100.384384,191.860703 
	C100.841354,193.000732 101.298325,194.140778 101.755295,195.280807 
	C101.451668,195.406448 101.148041,195.532089 100.844421,195.657715 
	C100.576057,195.183777 100.307701,194.709824 100.019836,193.921860 
z"/>
<path fill="#FEFEFE" opacity="1.000000" stroke="none" 
	d="
M166.989349,184.638626 
	C166.079269,184.197556 165.163483,183.382736 164.113037,182.288483 
	C164.980133,182.761002 165.981888,183.512939 166.989349,184.638626 
z"/>
<path fill="#FEFEFE" opacity="1.000000" stroke="none" 
	d="
M188.595428,154.456726 
	C188.321167,154.965164 187.934448,155.217758 187.547729,155.470352 
	C187.416016,155.061279 187.284302,154.652191 187.152603,154.243118 
	C187.596054,154.229034 188.039520,154.214951 188.595428,154.456726 
z"/>
<path fill="#FEFEFE" opacity="1.000000" stroke="none" 
	d="
M184.182953,154.927734 
	C184.757538,154.447845 185.124344,154.138718 185.491165,153.829575 
	C185.620056,154.078796 185.905243,154.504303 185.853683,154.550003 
	C185.328217,155.015884 184.753189,155.427643 184.172012,155.825287 
	C184.129929,155.854095 183.854187,155.672775 183.825943,155.555664 
	C183.793976,155.422958 183.918625,155.252502 184.182953,154.927734 
z"/>
<path fill="#FEFEFE" opacity="1.000000" stroke="none" 
	d="
M115.319023,169.459915 
	C116.013588,169.713974 116.357674,170.036606 116.885666,170.659119 
	C116.293083,171.286240 115.516594,171.613464 114.425240,171.970383 
	C114.396423,171.176224 114.682487,170.352356 115.319023,169.459915 
z"/>
<path fill="#FEFEFE" opacity="1.000000" stroke="none" 
	d="
M194.607391,186.532898 
	C195.058502,186.649277 195.335068,186.933365 195.590302,187.235489 
	C195.596832,187.243210 195.368973,187.448944 195.250443,187.562332 
	C194.976990,187.275879 194.703522,186.989426 194.607391,186.532898 
z"/>
<path fill="#E4E4E4" opacity="1.000000" stroke="none" 
	d="
M99.934296,187.449539 
	C99.896065,188.184143 99.810661,188.644958 99.725250,189.105789 
	C99.546959,189.102966 99.368660,189.100159 99.190361,189.097351 
	C99.190361,188.428772 99.176178,187.759552 99.206139,187.092316 
	C99.210480,186.995789 99.454094,186.814240 99.538521,186.838791 
	C99.675774,186.878693 99.773003,187.056274 99.934296,187.449539 
z"/>
<path fill="#E4E4E4" opacity="1.000000" stroke="none" 
	d="
M98.060745,183.539154 
	C98.099144,182.805450 98.186592,182.345444 98.274040,181.885437 
	C98.455040,181.887192 98.636040,181.888947 98.817039,181.890717 
	C98.817039,182.559326 98.831352,183.228607 98.801018,183.895844 
	C98.796669,183.991608 98.552551,184.170227 98.462578,184.146545 
	C98.325226,184.110352 98.225510,183.931259 98.060745,183.539154 
z"/>
<path fill="#FEFEFE" opacity="1.000000" stroke="none" 
	d="
M191.392578,168.466949 
	C190.941544,168.350586 190.665009,168.066559 190.409836,167.764481 
	C190.403290,167.756744 190.631119,167.551041 190.749664,167.437653 
	C191.023071,167.724075 191.296478,168.010483 191.392578,168.466949 
z"/>
<path fill="#FEFEFE" opacity="1.000000" stroke="none" 
	d="
M190.467072,162.607452 
	C190.350693,163.058517 190.066635,163.335068 189.764526,163.590240 
	C189.756775,163.596802 189.551056,163.368958 189.437683,163.250427 
	C189.724121,162.976990 190.010559,162.703552 190.467072,162.607452 
z"/>
<path fill="#FEFEFE" opacity="1.000000" stroke="none" 
	d="
M176.378586,156.745178 
	C175.861023,156.465927 175.537292,156.000290 175.117859,155.267853 
	C175.538910,155.520309 176.055664,156.039566 176.378586,156.745178 
z"/>
<path fill="#FEFEFE" opacity="1.000000" stroke="none" 
	d="
M195.659119,192.200897 
	C196.035294,192.039276 196.358124,192.086411 196.680969,192.133545 
	C196.322571,192.225586 195.964188,192.317612 195.659119,192.200897 
z"/>
<path fill="#FEFEFE" opacity="1.000000" stroke="none" 
	d="
M196.722427,197.601471 
	C196.849396,197.441116 197.069046,197.417908 197.288696,197.394699 
	C197.130829,197.509338 196.972977,197.623962 196.722427,197.601471 
z"/>
<path fill="#FEFEFE" opacity="1.000000" stroke="none" 
	d="
M192.011169,173.756592 
	C191.901123,173.590118 191.955109,173.422134 192.009094,173.254150 
	C192.064468,173.421112 192.119843,173.588089 192.011169,173.756592 
z"/>
<path fill="#FEFEFE" opacity="1.000000" stroke="none" 
	d="
M193.277496,178.398438 
	C193.150558,178.558762 192.930969,178.581955 192.711380,178.605164 
	C192.869217,178.490555 193.027039,178.375946 193.277496,178.398438 
z"/>
<path fill="#FEFEFE" opacity="1.000000" stroke="none" 
	d="
M178.722107,156.601639 
	C178.849243,156.441086 179.069199,156.417847 179.289169,156.394623 
	C179.131088,156.509384 178.973022,156.624176 178.722107,156.601639 
z"/>
<path fill="#E4E4E4" opacity="1.000000" stroke="none" 
	d="
M106.966248,222.023880 
	C106.816017,221.578049 106.698532,221.105972 106.581047,220.633911 
	C106.722412,220.907089 106.863777,221.180252 107.032867,221.697021 
	C107.060585,221.940598 106.999008,221.997650 106.966248,222.023880 
z"/>
<path fill="#FEFEFE" opacity="1.000000" stroke="none" 
	d="
M180.449387,154.532867 
	C180.415985,154.477020 180.482788,154.588699 180.449387,154.532867 
z"/>
<path fill="#FEFEFE" opacity="1.000000" stroke="none" 
	d="
M166.482849,152.031189 
	C167.447556,153.496521 168.081970,154.898697 168.798889,156.617615 
	C166.185913,157.523849 163.490448,158.113342 159.878464,158.903259 
	C158.563019,152.452545 157.278442,146.153259 155.996948,139.427002 
	C156.000031,139.000000 155.993149,139.008942 155.993149,139.008942 
	C158.200287,142.020828 160.363815,145.066101 162.633759,148.029861 
	C163.701111,149.423447 164.973221,150.660187 166.482849,152.031189 
z"/>
<path fill="#FEFEFE" opacity="1.000000" stroke="none" 
	d="
M124.443504,165.975464 
	C123.673286,163.250320 123.284943,160.521805 122.890854,157.414032 
	C123.930367,155.417252 125.185287,153.893066 125.959328,152.154755 
	C126.670715,150.557175 126.864288,148.729019 127.922272,147.003937 
	C128.482178,152.106949 129.366211,157.209976 129.365753,162.312927 
	C129.365646,163.532791 126.417587,164.752380 124.443504,165.975464 
z"/>
<path fill="#FEFEFE" opacity="1.000000" stroke="none" 
	d="
M156.004593,138.996399 
	C155.882797,138.852173 155.756439,138.711548 155.630081,138.570938 
	C155.716156,138.622101 155.802231,138.673264 155.940735,138.866684 
	C155.993149,139.008942 156.000031,139.000000 156.004593,138.996399 
z"/>
<path fill="#FFFFFF" opacity="1.000000" stroke="none" 
	d="
M457.537476,37.995537 
	C458.005371,85.991310 458.008240,133.989502 457.985840,181.987671 
	C457.984985,183.799988 457.739441,185.612198 457.315063,187.724518 
	C382.099274,188.016373 307.176239,187.956802 232.253662,188.115067 
	C227.235168,188.125671 225.853912,186.932800 225.876846,181.802155 
	C226.089767,134.185364 226.004807,86.567261 226.010162,38.482658 
	C303.032074,38.009838 380.050110,38.003899 457.537476,37.995537 
M265.407135,156.551300 
	C265.271606,157.525513 265.039032,158.497467 265.016235,159.474319 
	C264.863800,165.998749 264.878296,166.003235 271.376678,166.004333 
	C286.654755,166.006927 301.935516,165.848465 317.209229,166.106934 
	C321.428192,166.178329 322.297211,164.564041 322.068115,160.885025 
	C321.870087,157.705032 322.614594,154.786804 317.471069,154.888611 
	C301.700989,155.200745 285.920624,154.976761 270.144653,155.045654 
	C268.757355,155.051712 267.372742,155.674500 266.000000,156.000046 
	C266.000000,156.000046 266.010773,155.986877 265.407135,156.551300 
M266.000000,130.000000 
	C266.000000,130.000000 265.988403,129.988602 266.554504,130.611191 
	C284.138947,130.738724 301.724548,131.021393 319.307068,130.889801 
	C323.977448,130.854858 321.512360,126.627274 321.934998,124.268883 
	C322.322723,122.105247 322.246918,119.943718 318.879333,119.959381 
	C301.938019,120.038170 284.995880,119.963509 268.054901,120.075256 
	C267.058960,120.081833 265.232117,121.236946 265.224548,121.874672 
	C265.192261,124.583427 265.700500,127.298615 266.000000,130.000000 
M392.862549,113.231178 
	C388.139587,113.465553 383.416595,113.699921 377.798584,113.961700 
	C371.164032,113.971809 364.526184,114.108200 357.896332,113.936172 
	C354.803040,113.855911 353.920715,115.015144 353.938568,117.993256 
	C354.043091,135.408600 353.947723,152.825195 354.076019,170.240219 
	C354.085388,171.514526 355.327515,172.779755 356.602112,174.622314 
	C357.748535,174.747406 358.894806,174.979996 360.041412,174.981461 
	C377.860779,175.004410 395.681702,174.869186 413.498474,175.085709 
	C418.070160,175.141251 419.117462,173.356964 419.071320,169.180130 
	C418.892853,153.028091 419.024353,136.872787 418.958191,120.719048 
	C418.951721,119.144623 418.379303,117.572510 417.874725,115.194870 
	C416.381317,114.793533 414.895264,114.080048 413.393219,114.044670 
	C406.759003,113.888435 400.120117,113.927376 392.862549,113.231178 
M412.969482,85.012474 
	C414.931732,84.268669 418.544525,83.560127 418.561310,82.774765 
	C418.623322,79.872711 421.070923,76.198891 416.079559,73.991203 
	C365.880768,73.991203 315.681976,73.991203 265.364166,73.991203 
	C265.191803,75.712898 265.035126,76.681038 265.007111,77.652878 
	C264.795502,84.990067 264.803375,84.991684 272.089569,84.991898 
	C295.560486,84.992584 319.031403,85.019592 342.502289,84.983406 
	C361.142548,84.954674 379.782654,84.848076 398.696320,85.523079 
	C398.696320,88.787239 398.696320,92.051399 398.696320,95.532288 
	C403.187927,95.532288 407.852081,95.532288 412.128082,95.532288 
	C412.128082,91.817383 412.128082,88.418388 412.969482,85.012474 
M280.596344,92.923592 
	C290.656097,92.923592 300.715851,92.923592 310.775604,92.923592 
	C310.771667,92.617050 310.767731,92.310516 310.763824,92.003975 
	C300.490784,92.003975 290.217773,92.003975 279.813354,91.180344 
	C275.099396,90.707130 270.385406,90.233925 265.657593,89.759323 
	C265.657593,95.490829 265.657593,100.229889 265.657593,105.107933 
	C270.362305,105.107933 274.952972,105.107933 279.011871,105.107933 
	C279.216492,100.839546 279.409607,96.810959 280.596344,92.923592 
M317.184937,149.001114 
	C318.609833,148.845947 320.034729,148.690765 321.459625,148.535599 
	C321.408325,148.030716 321.357025,147.525818 321.305756,147.020935 
	C303.094086,147.020935 284.882446,147.020935 266.489624,147.020935 
	C266.489624,144.032272 266.489624,141.693344 266.489624,138.666977 
	C285.075439,138.666977 303.199005,138.666977 321.322540,138.666977 
	C321.345947,138.198303 321.369385,137.729630 321.392792,137.260956 
	C319.867920,137.174210 318.343140,137.013916 316.818176,137.012054 
	C301.491364,136.993378 286.161896,137.159119 270.839294,136.905640 
	C266.145752,136.827988 264.826569,138.429031 264.847809,142.969559 
	C264.868591,147.419312 265.994385,149.183502 270.774994,149.099548 
	C285.930511,148.833405 301.093719,149.001205 317.184937,149.001114 
M344.310242,53.231102 
	C341.142700,52.050022 337.969849,52.194252 337.109741,55.827480 
	C336.669922,57.685379 337.862000,60.654007 339.339325,61.987453 
	C340.329163,62.880909 343.705994,62.490219 344.975830,61.429905 
	C347.618347,59.223419 347.444580,56.248249 344.310242,53.231102 
M331.792999,56.076817 
	C330.590759,52.519482 327.774628,52.268154 325.069489,53.504566 
	C323.678253,54.140446 321.986572,56.384827 322.169586,57.651024 
	C322.423737,59.409286 323.973267,61.565044 325.572662,62.420147 
	C328.720062,64.102852 331.236267,61.708088 331.792999,56.076817 
M354.315582,52.833988 
	C351.116699,54.462002 349.620392,57.139713 351.905640,60.051678 
	C353.145844,61.632061 356.229065,62.963696 358.111755,62.582783 
	C361.592621,61.878506 361.879364,58.136806 360.735474,55.674778 
	C359.994446,54.079865 356.991852,53.535698 354.315582,52.833988 
z"/>
<path fill="#F9B4B5" opacity="1.000000" stroke="none" 
	d="
M129.115234,92.363235 
	C134.763763,92.563141 140.126663,93.041435 145.519653,93.522408 
	C145.943573,98.712921 143.065445,102.757828 138.111694,103.748528 
	C132.983002,104.774208 127.622185,101.757210 126.236412,97.064957 
	C125.528854,94.669182 125.776329,92.832817 129.115234,92.363235 
z"/>
<path fill="#E4E4E4" opacity="1.000000" stroke="none" 
	d="
M103.706192,179.753448 
	C106.053635,178.493729 108.718048,177.462799 111.382462,176.431885 
	C111.604683,177.145584 111.826897,177.859283 112.049118,178.572968 
	C109.373802,179.042740 106.698479,179.512497 103.706192,179.753448 
z"/>
<path fill="#E4E4E4" opacity="1.000000" stroke="none" 
	d="
M398.422852,84.776047 
	C379.782654,84.848076 361.142548,84.954674 342.502289,84.983406 
	C319.031403,85.019592 295.560486,84.992584 272.089569,84.991898 
	C264.803375,84.991684 264.795502,84.990067 265.007111,77.652878 
	C265.035126,76.681038 265.191803,75.712898 265.364166,73.991203 
	C315.681976,73.991203 365.880768,73.991203 416.546692,74.260521 
	C417.006653,74.711151 416.999451,74.892471 416.524902,75.046768 
	C366.162079,75.019753 316.266602,75.019753 266.479828,75.019753 
	C265.406799,83.995033 265.406799,83.991425 273.281525,83.996872 
	C314.932465,84.025642 356.583435,84.056396 398.330536,84.245453 
	C398.426697,84.404449 398.422852,84.776047 398.422852,84.776047 
z"/>
<path fill="#F2F2F2" opacity="1.000000" stroke="none" 
	d="
M418.069580,115.999321 
	C418.379303,117.572510 418.951721,119.144623 418.958191,120.719048 
	C419.024353,136.872787 418.892853,153.028091 419.071320,169.180130 
	C419.117462,173.356964 418.070160,175.141251 413.498474,175.085709 
	C395.681702,174.869186 377.860779,175.004410 360.041412,174.981461 
	C358.894806,174.979996 357.748535,174.747406 356.304138,173.985901 
	C356.008514,172.884216 356.010864,172.418945 356.275146,171.816772 
	C357.884064,172.117996 359.229218,172.930771 360.578339,172.937454 
	C377.860474,173.022934 395.143524,172.937653 412.425476,173.038757 
	C415.937256,173.059296 417.057770,171.611984 417.037354,168.258469 
	C416.941193,152.472092 417.040710,136.684433 416.909943,120.898567 
	C416.899261,119.605980 415.684052,118.323372 415.014343,117.019012 
	C415.000092,117.001907 414.966797,116.974159 415.075104,116.725479 
	C415.437531,116.002724 415.691620,115.528648 416.219971,115.151245 
	C417.019348,115.498383 417.544464,115.748856 418.069580,115.999321 
z"/>
<path fill="#F2F2F2" opacity="1.000000" stroke="none" 
	d="
M316.719421,149.001160 
	C301.093719,149.001205 285.930511,148.833405 270.774994,149.099548 
	C265.994385,149.183502 264.868591,147.419312 264.847809,142.969559 
	C264.826569,138.429031 266.145752,136.827988 270.839294,136.905640 
	C286.161896,137.159119 301.491364,136.993378 316.818176,137.012054 
	C318.343140,137.013916 319.867920,137.174210 321.392792,137.260956 
	C321.369385,137.729630 321.345947,138.198303 321.322540,138.666977 
	C303.199005,138.666977 285.075439,138.666977 266.489624,138.666977 
	C266.489624,141.693344 266.489624,144.032272 266.489624,147.020935 
	C284.882446,147.020935 303.094086,147.020935 321.305756,147.020935 
	C321.357025,147.525818 321.408325,148.030716 321.459625,148.535599 
	C320.034729,148.690765 318.609833,148.845947 316.719421,149.001160 
z"/>
<path fill="#4EAD8E" opacity="1.000000" stroke="none" 
	d="
M279.602722,92.782379 
	C279.409607,96.810959 279.216492,100.839546 279.011871,105.107933 
	C274.952972,105.107933 270.362305,105.107933 265.657593,105.107933 
	C265.657593,100.229889 265.657593,95.490829 265.657593,89.759323 
	C270.385406,90.233925 275.099396,90.707130 279.758087,91.771194 
	C279.702820,92.362045 279.602753,92.782379 279.602722,92.782379 
z"/>
<path fill="#4EAD8E" opacity="1.000000" stroke="none" 
	d="
M398.559570,85.149567 
	C398.422852,84.776047 398.426697,84.404449 398.371216,83.806129 
	C399.171143,82.412956 399.983734,80.994133 400.889313,80.932068 
	C404.662170,80.673485 408.462982,80.823265 412.263763,80.823265 
	C412.263763,82.062073 412.263763,83.016754 412.182129,84.227249 
	C412.109680,84.661842 412.118866,84.840614 412.128082,85.019394 
	C412.128082,88.418388 412.128082,91.817383 412.128082,95.532288 
	C407.852081,95.532288 403.187927,95.532288 398.696320,95.532288 
	C398.696320,92.051399 398.696320,88.787239 398.559570,85.149567 
z"/>
<path fill="#4EAD8E" opacity="1.000000" stroke="none" 
	d="
M378.693634,113.934296 
	C383.416595,113.699921 388.139587,113.465553 393.050171,113.838608 
	C393.225159,114.646355 393.212585,114.846657 393.047302,115.423569 
	C392.894623,119.713440 392.894623,123.626709 392.894623,127.709412 
	C388.351227,127.709412 383.790985,127.709412 379.437073,127.709412 
	C379.215607,123.270409 379.010376,119.157066 378.816528,114.762421 
	C378.783142,114.298859 378.738403,114.116585 378.693634,113.934296 
z"/>
<path fill="#E4E4E4" opacity="1.000000" stroke="none" 
	d="
M266.011353,130.011459 
	C265.700500,127.298615 265.192261,124.583427 265.224548,121.874672 
	C265.232117,121.236946 267.058960,120.081833 268.054901,120.075256 
	C284.995880,119.963509 301.938019,120.038170 318.879333,119.959381 
	C322.246918,119.943718 322.322723,122.105247 321.934998,124.268883 
	C321.512360,126.627274 323.977448,130.854858 319.307068,130.889801 
	C301.724548,131.021393 284.138947,130.738724 266.741272,130.298187 
	C284.811035,129.985168 302.694031,129.985168 320.593018,129.985168 
	C320.593018,126.596031 320.593018,124.038284 320.593018,121.346893 
	C302.327484,121.346893 284.461121,121.346893 266.011353,121.346893 
	C266.011353,124.451851 266.011353,127.231651 266.011353,130.011459 
z"/>
<path fill="#E4E4E4" opacity="1.000000" stroke="none" 
	d="
M265.986877,156.010834 
	C267.372742,155.674500 268.757355,155.051712 270.144653,155.045654 
	C285.920624,154.976761 301.700989,155.200745 317.471069,154.888611 
	C322.614594,154.786804 321.870087,157.705032 322.068115,160.885025 
	C322.297211,164.564041 321.428192,166.178329 317.209229,166.106934 
	C301.935516,165.848465 286.654755,166.006927 271.376678,166.004333 
	C264.878296,166.003235 264.863800,165.998749 265.016235,159.474319 
	C265.039032,158.497467 265.271606,157.525513 265.708038,156.726089 
	C266.008942,159.473633 266.008942,162.046387 266.008942,164.609009 
	C284.772217,164.609009 302.642120,164.609009 320.623566,164.609009 
	C320.623566,161.656784 320.623566,159.098557 320.623566,156.010834 
	C302.168823,156.010834 284.077850,156.010834 265.986877,156.010834 
z"/>
<path fill="#4EAD8E" opacity="1.000000" stroke="none" 
	d="
M344.597626,53.458008 
	C347.444580,56.248249 347.618347,59.223419 344.975830,61.429905 
	C343.705994,62.490219 340.329163,62.880909 339.339325,61.987453 
	C337.862000,60.654007 336.669922,57.685379 337.109741,55.827480 
	C337.969849,52.194252 341.142700,52.050022 344.597626,53.458008 
z"/>
<path fill="#343346" opacity="1.000000" stroke="none" 
	d="
M331.883942,56.453270 
	C331.236267,61.708088 328.720062,64.102852 325.572662,62.420147 
	C323.973267,61.565044 322.423737,59.409286 322.169586,57.651024 
	C321.986572,56.384827 323.678253,54.140446 325.069489,53.504566 
	C327.774628,52.268154 330.590759,52.519482 331.883942,56.453270 
z"/>
<path fill="#E4E4E4" opacity="1.000000" stroke="none" 
	d="
M354.659119,52.677345 
	C356.991852,53.535698 359.994446,54.079865 360.735474,55.674778 
	C361.879364,58.136806 361.592621,61.878506 358.111755,62.582783 
	C356.229065,62.963696 353.145844,61.632061 351.905640,60.051678 
	C349.620392,57.139713 351.116699,54.462002 354.659119,52.677345 
z"/>
<path fill="#E4E4E4" opacity="1.000000" stroke="none" 
	d="
M378.246094,113.947998 
	C378.738403,114.116585 378.783142,114.298859 378.361694,114.751648 
	C372.072937,115.017616 366.241302,115.209686 360.430878,114.941994 
	C356.299225,114.751640 354.888245,116.229561 354.936432,120.388611 
	C355.119568,136.190643 354.985046,151.996155 355.053436,167.800018 
	C355.059448,169.185928 355.678772,170.569199 356.013214,171.953690 
	C356.010864,172.418945 356.008514,172.884216 356.001343,173.699341 
	C355.327515,172.779755 354.085388,171.514526 354.076019,170.240219 
	C353.947723,152.825195 354.043091,135.408600 353.938568,117.993256 
	C353.920715,115.015144 354.803040,113.855911 357.896332,113.936172 
	C364.526184,114.108200 371.164032,113.971809 378.246094,113.947998 
z"/>
<path fill="#E4E4E4" opacity="1.000000" stroke="none" 
	d="
M280.099548,92.852982 
	C279.602753,92.782379 279.702820,92.362045 279.823792,92.183014 
	C290.217773,92.003975 300.490784,92.003975 310.763824,92.003975 
	C310.767731,92.310516 310.771667,92.617050 310.775604,92.923592 
	C300.715851,92.923592 290.656097,92.923592 280.099548,92.852982 
z"/>
<path fill="#F2F2F2" opacity="1.000000" stroke="none" 
	d="
M412.548767,85.015930 
	C412.118866,84.840614 412.109680,84.661842 412.592102,84.229813 
	C416.135132,84.401863 417.331360,83.063904 417.024353,80.038300 
	C416.858063,78.399246 416.993134,76.729622 416.992218,75.073784 
	C416.999451,74.892471 417.006653,74.711151 417.016571,74.257523 
	C421.070923,76.198891 418.623322,79.872711 418.561310,82.774765 
	C418.544525,83.560127 414.931732,84.268669 412.548767,85.015930 
z"/>
<path fill="#E4E4E4" opacity="1.000000" stroke="none" 
	d="
M393.199982,115.046967 
	C393.212585,114.846657 393.225159,114.646355 393.360352,114.170845 
	C400.120117,113.927376 406.759003,113.888435 413.393219,114.044670 
	C414.895264,114.080048 416.381317,114.793533 417.972168,115.597092 
	C417.544464,115.748856 417.019348,115.498383 415.757782,115.133331 
	C407.747559,115.028152 400.473785,115.037560 393.199982,115.046967 
z"/>
<path fill="#FEFEFE" opacity="1.000000" stroke="none" 
	d="
M416.524902,75.046768 
	C416.993134,76.729622 416.858063,78.399246 417.024353,80.038300 
	C417.331360,83.063904 416.135132,84.401863 412.673706,83.973999 
	C412.263763,83.016754 412.263763,82.062073 412.263763,80.823265 
	C408.462982,80.823265 404.662170,80.673485 400.889313,80.932068 
	C399.983734,80.994133 399.171143,82.412956 398.275085,83.647133 
	C356.583435,84.056396 314.932465,84.025642 273.281525,83.996872 
	C265.406799,83.991425 265.406799,83.995033 266.479828,75.019753 
	C316.266602,75.019753 366.162079,75.019753 416.524902,75.046768 
z"/>
<path fill="#FEFEFE" opacity="1.000000" stroke="none" 
	d="
M393.047302,115.423569 
	C400.473785,115.037560 407.747559,115.028152 415.483521,115.036667 
	C415.691620,115.528648 415.437531,116.002724 414.860779,116.836372 
	C414.270538,117.393990 414.081818,117.650146 413.754944,118.074615 
	C413.270111,118.385727 413.080017,118.643875 412.820892,119.025291 
	C412.797150,119.072159 412.920166,119.052994 413.259186,118.921768 
	C413.748901,118.611862 413.936462,118.351852 414.252930,117.919556 
	C414.737457,117.611557 414.924316,117.353790 415.028564,117.036125 
	C415.684052,118.323372 416.899261,119.605980 416.909943,120.898567 
	C417.040710,136.684433 416.941193,152.472092 417.037354,168.258469 
	C417.057770,171.611984 415.937256,173.059296 412.425476,173.038757 
	C395.143524,172.937653 377.860474,173.022934 360.578339,172.937454 
	C359.229218,172.930771 357.884064,172.117996 356.275146,171.816772 
	C355.678772,170.569199 355.059448,169.185928 355.053436,167.800018 
	C354.985046,151.996155 355.119568,136.190643 354.936432,120.388611 
	C354.888245,116.229561 356.299225,114.751640 360.430878,114.941994 
	C366.241302,115.209686 372.072937,115.017616 378.350342,115.032944 
	C379.010376,119.157066 379.215607,123.270409 379.437073,127.709412 
	C383.790985,127.709412 388.351227,127.709412 392.894623,127.709412 
	C392.894623,123.626709 392.894623,119.713440 393.047302,115.423569 
M362.467316,166.820618 
	C362.734283,166.618454 362.923462,166.359482 363.328125,165.910049 
	C363.203522,165.928055 363.078918,165.946060 362.521759,166.187241 
	C362.247223,166.383881 362.058105,166.642883 361.527710,167.187912 
	C361.260742,167.386307 361.073730,167.642944 360.525269,168.177399 
	C360.249207,168.378448 360.060822,168.642136 359.679047,169.097687 
	C359.795746,169.077362 359.912476,169.057037 360.468140,168.815506 
	C360.741882,168.614609 360.932281,168.353043 361.465790,167.807495 
	C361.732025,167.609741 361.921448,167.354904 362.467316,166.820618 
M390.542908,140.193878 
	C390.256775,140.390869 390.075256,140.658768 389.699738,141.097458 
	C389.800629,141.065491 389.901550,141.033524 390.449341,140.796494 
	C390.728668,140.598114 390.913452,140.333649 391.304596,139.892365 
	C391.201843,139.926819 391.099091,139.961258 390.542908,140.193878 
M382.888397,140.705582 
	C382.794586,140.656799 382.700806,140.608032 382.606995,140.559265 
	C382.737183,140.706787 382.867371,140.854309 383.191498,141.457504 
	C383.391022,141.741333 383.659729,141.922714 384.193298,142.456543 
	C384.392242,142.740936 384.660736,142.922531 384.983795,143.666931 
	C384.988373,144.110779 384.992950,144.554611 384.550049,145.202789 
	C384.270233,145.401062 384.085663,145.665756 383.548279,146.199356 
	C383.268372,146.397186 383.083649,146.661530 382.691254,147.104095 
	C382.796844,147.071457 382.902405,147.038818 383.460449,146.807953 
	C383.744965,146.609985 383.925995,146.342087 384.457520,145.807465 
	C384.741608,145.608566 384.922943,145.340225 385.617188,144.947754 
	C385.946075,144.534576 386.274963,144.121399 386.603882,143.708237 
	C386.069672,143.471558 385.535431,143.234863 384.796997,142.550339 
	C384.598389,142.270340 384.333160,142.086288 383.796814,141.550491 
	C383.598145,141.270584 383.332947,141.086487 382.888397,140.705582 
M378.111511,137.294724 
	C378.205322,137.343033 378.299164,137.391357 378.392975,137.439651 
	C378.263214,137.292007 378.133453,137.144363 377.812256,136.539108 
	C377.612305,136.254913 377.343231,136.073044 376.900940,135.690643 
	C376.805267,135.639114 376.709595,135.587601 376.613922,135.536072 
	C376.740601,135.692337 376.867249,135.848618 377.198486,136.453445 
	C377.397949,136.733734 377.664154,136.917145 378.111511,137.294724 
M380.528961,139.386826 
	C380.528961,139.386826 380.610107,139.512390 380.528961,139.386826 
z"/>
<path fill="#FFFFFF" opacity="1.000000" stroke="none" 
	d="
M266.005676,130.005737 
	C266.011353,127.231651 266.011353,124.451851 266.011353,121.346893 
	C284.461121,121.346893 302.327484,121.346893 320.593018,121.346893 
	C320.593018,124.038284 320.593018,126.596031 320.593018,129.985168 
	C302.694031,129.985168 284.811035,129.985168 266.458191,129.986877 
	C265.988403,129.988602 266.000000,130.000000 266.005676,130.005737 
z"/>
<path fill="#FEFEFE" opacity="1.000000" stroke="none" 
	d="
M265.993439,156.005432 
	C284.077850,156.010834 302.168823,156.010834 320.623566,156.010834 
	C320.623566,159.098557 320.623566,161.656784 320.623566,164.609009 
	C302.642120,164.609009 284.772217,164.609009 266.008942,164.609009 
	C266.008942,162.046387 266.008942,159.473633 266.009857,156.443878 
	C266.010773,155.986877 266.000000,156.000046 265.993439,156.005432 
z"/>
<path fill="#E4E4E4" opacity="1.000000" stroke="none" 
	d="
M384.997559,144.998459 
	C384.992950,144.554611 384.988373,144.110779 384.991882,143.333466 
	C385.000000,143.000000 385.001221,142.998184 385.001221,142.998184 
	C385.535431,143.234863 386.069672,143.471558 386.603882,143.708221 
	C386.274963,144.121399 385.946075,144.534576 385.308594,144.973877 
	C385.000000,145.000000 384.997559,144.998459 384.997559,144.998459 
z"/>
<path fill="#E4E4E4" opacity="1.000000" stroke="none" 
	d="
M377.004974,135.993484 
	C377.343231,136.073044 377.612305,136.254913 377.906128,136.769562 
	C378.000000,137.000000 377.997070,137.003708 377.997070,137.003708 
	C377.664154,136.917145 377.397949,136.733734 377.099243,136.226715 
	C377.000000,136.000000 377.004974,135.993484 377.004974,135.993484 
z"/>
<path fill="#E4E4E4" opacity="1.000000" stroke="none" 
	d="
M376.996948,136.002441 
	C376.867249,135.848618 376.740601,135.692337 376.613922,135.536072 
	C376.709595,135.587601 376.805267,135.639114 376.952942,135.842072 
	C377.004974,135.993484 377.000000,136.000000 376.996948,136.002441 
z"/>
<path fill="#F2F2F2" opacity="1.000000" stroke="none" 
	d="
M413.043182,119.033829 
	C412.920166,119.052994 412.797150,119.072159 412.838379,119.045357 
	C413.002625,118.999382 413.043182,119.033829 413.043182,119.033829 
z"/>
<path fill="#E4E4E4" opacity="1.000000" stroke="none" 
	d="
M383.996338,145.996887 
	C384.085663,145.665756 384.270233,145.401062 384.773804,145.100616 
	C384.997559,144.998459 385.000000,145.000000 385.000763,145.001221 
	C384.922943,145.340225 384.741608,145.608566 384.228760,145.903732 
	C384.000000,146.000000 383.996338,145.996887 383.996338,145.996887 
z"/>
<path fill="#F2F2F2" opacity="1.000000" stroke="none" 
	d="
M412.985138,118.979317 
	C413.080017,118.643875 413.270111,118.385727 413.770020,118.092308 
	C414.002136,117.999809 414.037811,118.029678 414.037811,118.029678 
	C413.936462,118.351852 413.748901,118.611862 413.259186,118.921768 
	C413.043182,119.033829 413.002625,118.999382 412.985138,118.979317 
z"/>
<path fill="#F2F2F2" opacity="1.000000" stroke="none" 
	d="
M413.987061,117.982117 
	C414.081818,117.650146 414.270538,117.393990 414.752441,117.085052 
	C414.966797,116.974159 415.000092,117.001907 415.014343,117.019012 
	C414.924316,117.353790 414.737457,117.611557 414.252930,117.919556 
	C414.037811,118.029678 414.002136,117.999809 413.987061,117.982117 
z"/>
<path fill="#E4E4E4" opacity="1.000000" stroke="none" 
	d="
M384.999390,143.000641 
	C384.660736,142.922531 384.392242,142.740936 384.096649,142.228271 
	C384.000000,142.000000 384.001373,141.998169 384.001373,141.998169 
	C384.333160,142.086288 384.598389,142.270340 384.899109,142.774261 
	C385.001221,142.998184 385.000000,143.000000 384.999390,143.000641 
z"/>
<path fill="#E4E4E4" opacity="1.000000" stroke="none" 
	d="
M383.007996,147.006180 
	C382.902405,147.038818 382.796844,147.071457 382.845642,147.052063 
	C383.000000,147.000015 383.007996,147.006180 383.007996,147.006180 
z"/>
<path fill="#E4E4E4" opacity="1.000000" stroke="none" 
	d="
M384.001770,146.002136 
	C383.925995,146.342087 383.744965,146.609985 383.234222,146.907074 
	C383.007996,147.006180 383.000000,147.000015 382.997070,146.996216 
	C383.083649,146.661530 383.268372,146.397186 383.772308,146.098114 
	C383.996338,145.996887 384.000000,146.000000 384.001770,146.002136 
z"/>
<path fill="#F2F2F2" opacity="1.000000" stroke="none" 
	d="
M359.960114,168.968475 
	C360.060822,168.642136 360.249207,168.378448 360.762695,168.087280 
	C361.000153,167.997177 361.039398,168.030823 361.039398,168.030823 
	C360.932281,168.353043 360.741882,168.614609 360.232727,168.907684 
	C359.997345,168.999863 359.960114,168.968475 359.960114,168.968475 
z"/>
<path fill="#E4E4E4" opacity="1.000000" stroke="none" 
	d="
M378.001831,136.998352 
	C378.133453,137.144363 378.263214,137.292007 378.392975,137.439667 
	C378.299164,137.391357 378.205322,137.343033 378.054291,137.149216 
	C377.997070,137.003708 378.000000,137.000000 378.001831,136.998352 
z"/>
<path fill="#E4E4E4" opacity="1.000000" stroke="none" 
	d="
M390.002441,141.001556 
	C389.901550,141.033524 389.800629,141.065491 389.849854,141.048737 
	C390.000000,141.000000 390.002441,141.001556 390.002441,141.001556 
z"/>
<path fill="#E4E4E4" opacity="1.000000" stroke="none" 
	d="
M383.001221,140.998169 
	C383.332947,141.086487 383.598145,141.270584 383.899109,141.774323 
	C384.001373,141.998169 384.000000,142.000000 383.998779,142.000824 
	C383.659729,141.922714 383.391022,141.741333 383.095764,141.228760 
	C383.000000,141.000000 383.001221,140.998169 383.001221,140.998169 
z"/>
<path fill="#E4E4E4" opacity="1.000000" stroke="none" 
	d="
M391.003662,140.003098 
	C390.913452,140.333649 390.728668,140.598114 390.225891,140.899017 
	C390.002441,141.001556 390.000000,141.000000 389.999176,140.998779 
	C390.075256,140.658768 390.256775,140.390869 390.771454,140.096939 
	C391.000000,140.000000 391.003662,140.003098 391.003662,140.003098 
z"/>
<path fill="#E4E4E4" opacity="1.000000" stroke="none" 
	d="
M382.998779,141.000916 
	C382.867371,140.854309 382.737183,140.706787 382.606995,140.559265 
	C382.700806,140.608032 382.794586,140.656799 382.944824,140.851868 
	C383.001221,140.998169 383.000000,141.000000 382.998779,141.000916 
z"/>
<path fill="#F2F2F2" opacity="1.000000" stroke="none" 
	d="
M362.954315,165.964066 
	C363.078918,165.946060 363.203522,165.928055 363.162781,165.955536 
	C362.997406,166.001007 362.954315,165.964066 362.954315,165.964066 
z"/>
<path fill="#F2F2F2" opacity="1.000000" stroke="none" 
	d="
M363.016113,166.022339 
	C362.923462,166.359482 362.734283,166.618454 362.231995,166.910431 
	C361.996674,167.000229 361.954346,166.964279 361.954346,166.964279 
	C362.058105,166.642883 362.247223,166.383881 362.738037,166.075653 
	C362.954315,165.964066 362.997406,166.001007 363.016113,166.022339 
z"/>
<path fill="#E4E4E4" opacity="1.000000" stroke="none" 
	d="
M380.569519,139.449615 
	C380.610107,139.512390 380.528961,139.386826 380.569519,139.449615 
z"/>
<path fill="#F2F2F2" opacity="1.000000" stroke="none" 
	d="
M360.983398,167.977509 
	C361.073730,167.642944 361.260742,167.386307 361.741028,167.076096 
	C361.954346,166.964279 361.996674,167.000229 362.015350,167.021591 
	C361.921448,167.354904 361.732025,167.609741 361.252594,167.919159 
	C361.039398,168.030823 361.000153,167.997177 360.983398,167.977509 
z"/>
<path fill="#E4E4E4" opacity="1.000000" stroke="none" 
	d="
M390.998169,139.997864 
	C391.099091,139.961258 391.201843,139.926819 391.154114,139.947723 
	C391.003662,140.003098 391.000000,140.000000 390.998169,139.997864 
z"/>
<path fill="#F2F2F2" opacity="1.000000" stroke="none" 
	d="
M360.013245,169.018280 
	C359.912476,169.057037 359.795746,169.077362 359.819580,169.033081 
	C359.960114,168.968475 359.997345,168.999863 360.013245,169.018280 
z"/>
</svg>